<svg xmlns="http://www.w3.org/2000/svg" viewBox="0 0 1024 500" width="1024" height="500"><defs><linearGradient id="fsky" x1="0" y1="0" x2="0" y2="1"><stop offset="0" stop-color="#5588CB"></stop><stop offset=".55" stop-color="#A9CBEA"></stop><stop offset="1" stop-color="#FBE6CF"></stop></linearGradient><linearGradient id="fgnd" x1="0" y1="0" x2="0" y2="1"><stop offset="0" stop-color="#FFFFFF"></stop><stop offset="1" stop-color="#D5E2F0"></stop></linearGradient><radialGradient id="fsun" cx=".5" cy=".5" r=".5"><stop offset="0" stop-color="#FFE9A8" stop-opacity=".95"></stop><stop offset="1" stop-color="#FFE9A8" stop-opacity="0"></stop></radialGradient><style>@font-face{font-family:K;src:url(file:///home/user/gudauri-ski-trip/app/android/app/src/main/res/font/karantina_bold.ttf)}</style><linearGradient id="fp0L" x1="0" y1="0" x2="0" y2="1"><stop offset="0" stop-color="#FFFFFF"></stop><stop offset="1" stop-color="#CFE0F2"></stop></linearGradient><linearGradient id="fp0S" x1="0" y1="0" x2="0" y2="1"><stop offset="0" stop-color="#A4BCD8"></stop><stop offset="1" stop-color="#6685B0"></stop></linearGradient><linearGradient id="fp1L" x1="0" y1="0" x2="0" y2="1"><stop offset="0" stop-color="#FFFFFF"></stop><stop offset="1" stop-color="#CFE0F2"></stop></linearGradient><linearGradient id="fp1S" x1="0" y1="0" x2="0" y2="1"><stop offset="0" stop-color="#A4BCD8"></stop><stop offset="1" stop-color="#6685B0"></stop></linearGradient><linearGradient id="fp2L" x1="0" y1="0" x2="0" y2="1"><stop offset="0" stop-color="#FFFFFF"></stop><stop offset="1" stop-color="#CFE0F2"></stop></linearGradient><linearGradient id="fp2S" x1="0" y1="0" x2="0" y2="1"><stop offset="0" stop-color="#A4BCD8"></stop><stop offset="1" stop-color="#6685B0"></stop></linearGradient><linearGradient id="fp3L" x1="0" y1="0" x2="0" y2="1"><stop offset="0" stop-color="#FFFFFF"></stop><stop offset="1" stop-color="#CFE0F2"></stop></linearGradient><linearGradient id="fp3S" x1="0" y1="0" x2="0" y2="1"><stop offset="0" stop-color="#A4BCD8"></stop><stop offset="1" stop-color="#6685B0"></stop></linearGradient></defs><rect width="1024" height="500" fill="url(#fsky)"></rect><circle cx="470" cy="150" r="110" fill="url(#fsun)"></circle><circle cx="470" cy="150" r="26" fill="#F4B942"></circle><path d="M0 230.2 L12.8 235 L25.6 228.3 L38.4 227.1 L51.2 229.5 L64 219.7 L76.8 211.8 L89.6 217.3 L102.4 227.8 L115.2 233.8 L128 236.5 L140.8 242.5 L153.6 246.8 L166.4 258.3 L179.2 264.1 L192 274.2 L204.8 279 L217.6 267.9 L230.4 261.4 L243.2 250.9 L256 238.9 L268.8 230.5 L281.6 231.4 L294.4 223.8 L307.2 214.4 L320 207.2 L332.8 199.5 L345.6 189.9 L358.4 182.7 L371.2 178.9 L384 185.1 L396.8 190.9 L409.6 180.6 L422.4 181.5 L435.2 189.9 L448 201 L460.8 207.9 L473.6 202.2 L486.4 192.1 L499.2 189 L512 184.2 L524.8 174.6 L537.6 163.3 L550.4 152.7 L563.2 162.6 L576 167.6 L588.8 165.7 L601.6 161.1 L614.4 159.2 L627.2 164 L640 166.4 L652.8 172.6 L665.6 172.9 L678.4 170.7 L691.2 178.4 L704 185.6 L716.8 183.9 L729.6 190.9 L742.4 201.4 L755.2 213 L768 222.1 L780.8 225.2 L793.6 232.6 L806.4 243 L819.2 256.9 L832 267.4 L844.8 276.1 L857.6 290 L870.4 288.3 L883.2 286.6 L896 284.5 L908.8 286.9 L921.6 287.4 L934.4 283.5 L947.2 280.6 L960 281.1 L972.8 272.7 L985.6 260.7 L998.4 246.3 L1011.2 233.1 L1024 220.9 L1024 420 L0 420 Z" fill="#B1C9E1"></path><path d="M-60 272.2 L-45.5 275.4 L-31 270.9 L-16.5 270.1 L-2 271.7 L12.5 265.1 L27 259.8 L41.5 263.5 L56 270.6 L70.5 274.6 L85 276.3 L99.5 280.3 L114 283.2 L128.5 290.9 L143 294.7 L157.5 301.4 L172 304.6 L186.5 297.3 L201 293 L215.5 285.9 L230 277.9 L244.5 272.3 L259 273 L273.5 267.8 L288 261.6 L302.5 256.8 L317 251.7 L331.5 245.3 L346 240.5 L360.5 237.9 L375 242.1 L389.5 245.9 L404 239 L418.5 239.7 L433 245.3 L447.5 252.6 L462 257.3 L476.5 253.4 L491 246.7 L505.5 244.6 L520 241.4 L534.5 235 L549 227.5 L563.5 220.5 L578 227 L592.5 230.4 L607 229.1 L621.5 226.1 L636 224.8 L650.5 228 L665 229.6 L679.5 233.8 L694 233.9 L708.5 232.5 L723 237.6 L737.5 242.4 L752 241.3 L766.5 245.9 L781 253 L795.5 260.6 L810 266.7 L824.5 268.8 L839 273.8 L853.5 280.6 L868 289.9 L882.5 297 L897 302.7 L911.5 312 L926 310.9 L940.5 309.8 L955 308.3 L969.5 309.9 L984 310.2 L998.5 307.7 L1013 305.8 L1027.5 306.1 L1042 300.5 L1056.5 292.5 L1071 282.9 L1085.5 274.1 L1100 265.9 L1024 420 L0 420 Z" fill="#97B3D3"></path><path d="M70 200 L29.9 227.2 L3.9 254.6 L-19.3 274.8 L-55.2 310.7 L-77.5 330.1 L-100 360 L100 360 L95.5 328 L92.1 296 L75 264 L78.7 232 Z" fill="url(#fp0L)"></path><path d="M70 200 L78.7 232 L75 264 L92.1 296 L95.5 328 L100 360 L220 360 L197.6 336.2 L176.3 311.1 L153 275.8 L132.4 253 L110.6 226.3 Z" fill="url(#fp0S)"></path><path d="M560 120 L530.4 149.5 L509.8 170.5 L491.1 189 L489.1 212.5 L465.6 239.5 L445.6 263.9 L425 292 L407.2 308.8 L390.2 333.2 L380 360 L580 360 L583.1 312 L567.1 264 L567.8 216 L571.1 168 Z" fill="url(#fp1L)"></path><path d="M560 120 L571.1 168 L567.8 216 L567.1 264 L583.1 312 L580 360 L760 360 L737.2 330.8 L728.9 313 L704.9 289.8 L683.7 266.3 L665.2 241.9 L640.5 217.4 L623.9 197.9 L605.7 163.4 L585 148.8 Z" fill="url(#fp1S)"></path><path d="M860 170 L835.7 193 L820.6 207.9 L791.3 231.8 L778.7 258.2 L768.5 276.8 L749.7 298.6 L727.5 317.1 L711.7 343.8 L700 360 L880 360 L870.6 322 L873.9 284 L865 246 L858.2 208 Z" fill="url(#fp2L)"></path><path d="M860 170 L858.2 208 L865 246 L873.9 284 L870.6 322 L880 360 L1100 360 L1070.7 338 L1057.8 323.1 L1026.4 291.8 L994.3 280.5 L981.1 248.7 L946.5 232.2 L914.7 214.5 L886 194.9 Z" fill="url(#fp2S)"></path><path d="M250 50 L222.2 78.7 L201.1 107 L176.7 132.6 L141.6 152.9 L135 181 L112.2 200.4 L83.8 227.8 L63.7 257.6 L35.2 279.1 L18.3 313.3 L3.9 330.1 L-20 360 L290 360 L283.6 298 L270.8 236 L259 174 L252.3 112 Z" fill="url(#fp3L)"></path><path d="M250 50 L252.3 112 L259 174 L270.8 236 L283.6 298 L290 360 L520 360 L497.7 330.2 L484.1 305.9 L460.6 288.1 L432.6 262 L416.3 233 L390.8 210.5 L380.5 183.6 L345.2 149.9 L318.7 132 L306.6 97.2 L285.9 71.5 Z" fill="url(#fp3S)"></path><path d="M0 334 Q90 316 180 328 T360 324 T540 330 T720 322 T900 330 T1024 318 V460 H0 Z" fill="#285684"></path><rect x="6.3" y="352.2" width="3.4" height="4.8" fill="#13233A"></rect><path d="M8 308 L14.6 324.3 L1.4 324.3 Z" fill="#1E4A78"></path><path d="M8 308 L11.6 316.2 Q11.3 314.2 8 316.2 L4.4 316.2 Q4.7 314.2 8 316.2 Z" fill="#FFFFFF"></path><path d="M8 321.4 L17.6 337.8 L-1.6 337.8 Z" fill="#1E4A78"></path><path d="M8 321.4 L13.3 329.6 Q12.8 327.6 8 329.6 L2.7 329.6 Q3.2 327.6 8 329.6 Z" fill="#FFFFFF"></path><path d="M8 335.8 L20 352.2 L-4 352.2 Z" fill="#1E4A78"></path><path d="M8 335.8 L14.6 344 Q14 342 8 344 L1.4 344 Q2 342 8 344 Z" fill="#FFFFFF"></path><rect x="36.9" y="358.3" width="4.1" height="5.9" fill="#13233A"></rect><path d="M39 304 L47.1 324.1 L30.9 324.1 Z" fill="#1E4A78"></path><path d="M39 304 L43.5 314 Q43.1 311.6 39 314 L34.5 314 Q34.9 311.6 39 314 Z" fill="#FFFFFF"></path><path d="M39 320.5 L50.8 340.6 L27.2 340.6 Z" fill="#1E4A78"></path><path d="M39 320.5 L45.5 330.5 Q44.9 328.1 39 330.5 L32.5 330.5 Q33.1 328.1 39 330.5 Z" fill="#FFFFFF"></path><path d="M39 338.2 L53.8 358.3 L24.2 358.3 Z" fill="#1E4A78"></path><path d="M39 338.2 L47.1 348.2 Q46.4 345.8 39 348.2 L30.9 348.2 Q31.6 345.8 39 348.2 Z" fill="#FFFFFF"></path><rect x="68.3" y="366.2" width="3.4" height="4.8" fill="#13233A"></rect><path d="M70 322 L76.6 338.3 L63.4 338.3 Z" fill="#1E4A78"></path><path d="M70 322 L73.6 330.2 Q73.3 328.2 70 330.2 L66.4 330.2 Q66.7 328.2 70 330.2 Z" fill="#FFFFFF"></path><path d="M70 335.4 L79.6 351.8 L60.4 351.8 Z" fill="#1E4A78"></path><path d="M70 335.4 L75.3 343.6 Q74.8 341.6 70 343.6 L64.7 343.6 Q65.2 341.6 70 343.6 Z" fill="#FFFFFF"></path><path d="M70 349.8 L82 366.2 L58 366.2 Z" fill="#1E4A78"></path><path d="M70 349.8 L76.6 358 Q76 356 70 358 L63.4 358 Q64 356 70 358 Z" fill="#FFFFFF"></path><rect x="98.9" y="354.3" width="4.1" height="5.9" fill="#13233A"></rect><path d="M101 300 L109.1 320.1 L92.9 320.1 Z" fill="#1E4A78"></path><path d="M101 300 L105.5 310 Q105.1 307.6 101 310 L96.5 310 Q96.9 307.6 101 310 Z" fill="#FFFFFF"></path><path d="M101 316.5 L112.8 336.6 L89.2 336.6 Z" fill="#1E4A78"></path><path d="M101 316.5 L107.5 326.5 Q106.9 324.1 101 326.5 L94.5 326.5 Q95.1 324.1 101 326.5 Z" fill="#FFFFFF"></path><path d="M101 334.2 L115.8 354.3 L86.2 354.3 Z" fill="#1E4A78"></path><path d="M101 334.2 L109.1 344.2 Q108.4 341.8 101 344.2 L92.9 344.2 Q93.6 341.8 101 344.2 Z" fill="#FFFFFF"></path><rect x="130.3" y="362.2" width="3.4" height="4.8" fill="#13233A"></rect><path d="M132 318 L138.6 334.3 L125.4 334.3 Z" fill="#1E4A78"></path><path d="M132 318 L135.6 326.2 Q135.3 324.2 132 326.2 L128.4 326.2 Q128.7 324.2 132 326.2 Z" fill="#FFFFFF"></path><path d="M132 331.4 L141.6 347.8 L122.4 347.8 Z" fill="#1E4A78"></path><path d="M132 331.4 L137.3 339.6 Q136.8 337.6 132 339.6 L126.7 339.6 Q127.2 337.6 132 339.6 Z" fill="#FFFFFF"></path><path d="M132 345.8 L144 362.2 L120 362.2 Z" fill="#1E4A78"></path><path d="M132 345.8 L138.6 354 Q138 352 132 354 L125.4 354 Q126 352 132 354 Z" fill="#FFFFFF"></path><rect x="160.9" y="368.3" width="4.1" height="5.9" fill="#13233A"></rect><path d="M163 314 L171.1 334.1 L154.9 334.1 Z" fill="#1E4A78"></path><path d="M163 314 L167.5 324 Q167.1 321.6 163 324 L158.5 324 Q158.9 321.6 163 324 Z" fill="#FFFFFF"></path><path d="M163 330.5 L174.8 350.6 L151.2 350.6 Z" fill="#1E4A78"></path><path d="M163 330.5 L169.5 340.5 Q168.9 338.1 163 340.5 L156.5 340.5 Q157.1 338.1 163 340.5 Z" fill="#FFFFFF"></path><path d="M163 348.2 L177.8 368.3 L148.2 368.3 Z" fill="#1E4A78"></path><path d="M163 348.2 L171.1 358.2 Q170.4 355.8 163 358.2 L154.9 358.2 Q155.6 355.8 163 358.2 Z" fill="#FFFFFF"></path><rect x="192.3" y="358.2" width="3.4" height="4.8" fill="#13233A"></rect><path d="M194 314 L200.6 330.3 L187.4 330.3 Z" fill="#1E4A78"></path><path d="M194 314 L197.6 322.2 Q197.3 320.2 194 322.2 L190.4 322.2 Q190.7 320.2 194 322.2 Z" fill="#FFFFFF"></path><path d="M194 327.4 L203.6 343.8 L184.4 343.8 Z" fill="#1E4A78"></path><path d="M194 327.4 L199.3 335.6 Q198.8 333.6 194 335.6 L188.7 335.6 Q189.2 333.6 194 335.6 Z" fill="#FFFFFF"></path><path d="M194 341.8 L206 358.2 L182 358.2 Z" fill="#1E4A78"></path><path d="M194 341.8 L200.6 350 Q200 348 194 350 L187.4 350 Q188 348 194 350 Z" fill="#FFFFFF"></path><rect x="222.9" y="364.3" width="4.1" height="5.9" fill="#13233A"></rect><path d="M225 310 L233.1 330.1 L216.9 330.1 Z" fill="#1E4A78"></path><path d="M225 310 L229.5 320 Q229.1 317.6 225 320 L220.5 320 Q220.9 317.6 225 320 Z" fill="#FFFFFF"></path><path d="M225 326.5 L236.8 346.6 L213.2 346.6 Z" fill="#1E4A78"></path><path d="M225 326.5 L231.5 336.5 Q230.9 334.1 225 336.5 L218.5 336.5 Q219.1 334.1 225 336.5 Z" fill="#FFFFFF"></path><path d="M225 344.2 L239.8 364.3 L210.2 364.3 Z" fill="#1E4A78"></path><path d="M225 344.2 L233.1 354.2 Q232.4 351.8 225 354.2 L216.9 354.2 Q217.6 351.8 225 354.2 Z" fill="#FFFFFF"></path><rect x="254.3" y="354.2" width="3.4" height="4.8" fill="#13233A"></rect><path d="M256 310 L262.6 326.3 L249.4 326.3 Z" fill="#1E4A78"></path><path d="M256 310 L259.6 318.2 Q259.3 316.2 256 318.2 L252.4 318.2 Q252.7 316.2 256 318.2 Z" fill="#FFFFFF"></path><path d="M256 323.4 L265.6 339.8 L246.4 339.8 Z" fill="#1E4A78"></path><path d="M256 323.4 L261.3 331.6 Q260.8 329.6 256 331.6 L250.7 331.6 Q251.2 329.6 256 331.6 Z" fill="#FFFFFF"></path><path d="M256 337.8 L268 354.2 L244 354.2 Z" fill="#1E4A78"></path><path d="M256 337.8 L262.6 346 Q262 344 256 346 L249.4 346 Q250 344 256 346 Z" fill="#FFFFFF"></path><rect x="284.9" y="360.3" width="4.1" height="5.9" fill="#13233A"></rect><path d="M287 306 L295.1 326.1 L278.9 326.1 Z" fill="#1E4A78"></path><path d="M287 306 L291.5 316 Q291.1 313.6 287 316 L282.5 316 Q282.9 313.6 287 316 Z" fill="#FFFFFF"></path><path d="M287 322.5 L298.8 342.6 L275.2 342.6 Z" fill="#1E4A78"></path><path d="M287 322.5 L293.5 332.5 Q292.9 330.1 287 332.5 L280.5 332.5 Q281.1 330.1 287 332.5 Z" fill="#FFFFFF"></path><path d="M287 340.2 L301.8 360.3 L272.2 360.3 Z" fill="#1E4A78"></path><path d="M287 340.2 L295.1 350.2 Q294.4 347.8 287 350.2 L278.9 350.2 Q279.6 347.8 287 350.2 Z" fill="#FFFFFF"></path><rect x="316.3" y="368.2" width="3.4" height="4.8" fill="#13233A"></rect><path d="M318 324 L324.6 340.3 L311.4 340.3 Z" fill="#1E4A78"></path><path d="M318 324 L321.6 332.2 Q321.3 330.2 318 332.2 L314.4 332.2 Q314.7 330.2 318 332.2 Z" fill="#FFFFFF"></path><path d="M318 337.4 L327.6 353.8 L308.4 353.8 Z" fill="#1E4A78"></path><path d="M318 337.4 L323.3 345.6 Q322.8 343.6 318 345.6 L312.7 345.6 Q313.2 343.6 318 345.6 Z" fill="#FFFFFF"></path><path d="M318 351.8 L330 368.2 L306 368.2 Z" fill="#1E4A78"></path><path d="M318 351.8 L324.6 360 Q324 358 318 360 L311.4 360 Q312 358 318 360 Z" fill="#FFFFFF"></path><rect x="346.9" y="356.3" width="4.1" height="5.9" fill="#13233A"></rect><path d="M349 302 L357.1 322.1 L340.9 322.1 Z" fill="#1E4A78"></path><path d="M349 302 L353.5 312 Q353.1 309.6 349 312 L344.5 312 Q344.9 309.6 349 312 Z" fill="#FFFFFF"></path><path d="M349 318.5 L360.8 338.6 L337.2 338.6 Z" fill="#1E4A78"></path><path d="M349 318.5 L355.5 328.5 Q354.9 326.1 349 328.5 L342.5 328.5 Q343.1 326.1 349 328.5 Z" fill="#FFFFFF"></path><path d="M349 336.2 L363.8 356.3 L334.2 356.3 Z" fill="#1E4A78"></path><path d="M349 336.2 L357.1 346.2 Q356.4 343.8 349 346.2 L340.9 346.2 Q341.6 343.8 349 346.2 Z" fill="#FFFFFF"></path><rect x="378.3" y="364.2" width="3.4" height="4.8" fill="#13233A"></rect><path d="M380 320 L386.6 336.3 L373.4 336.3 Z" fill="#1E4A78"></path><path d="M380 320 L383.6 328.2 Q383.3 326.2 380 328.2 L376.4 328.2 Q376.7 326.2 380 328.2 Z" fill="#FFFFFF"></path><path d="M380 333.4 L389.6 349.8 L370.4 349.8 Z" fill="#1E4A78"></path><path d="M380 333.4 L385.3 341.6 Q384.8 339.6 380 341.6 L374.7 341.6 Q375.2 339.6 380 341.6 Z" fill="#FFFFFF"></path><path d="M380 347.8 L392 364.2 L368 364.2 Z" fill="#1E4A78"></path><path d="M380 347.8 L386.6 356 Q386 354 380 356 L373.4 356 Q374 354 380 356 Z" fill="#FFFFFF"></path><rect x="408.9" y="352.3" width="4.1" height="5.9" fill="#13233A"></rect><path d="M411 298 L419.1 318.1 L402.9 318.1 Z" fill="#1E4A78"></path><path d="M411 298 L415.5 308 Q415.1 305.6 411 308 L406.5 308 Q406.9 305.6 411 308 Z" fill="#FFFFFF"></path><path d="M411 314.5 L422.8 334.6 L399.2 334.6 Z" fill="#1E4A78"></path><path d="M411 314.5 L417.5 324.5 Q416.9 322.1 411 324.5 L404.5 324.5 Q405.1 322.1 411 324.5 Z" fill="#FFFFFF"></path><path d="M411 332.2 L425.8 352.3 L396.2 352.3 Z" fill="#1E4A78"></path><path d="M411 332.2 L419.1 342.2 Q418.4 339.8 411 342.2 L402.9 342.2 Q403.6 339.8 411 342.2 Z" fill="#FFFFFF"></path><rect x="440.3" y="360.2" width="3.4" height="4.8" fill="#13233A"></rect><path d="M442 316 L448.6 332.3 L435.4 332.3 Z" fill="#1E4A78"></path><path d="M442 316 L445.6 324.2 Q445.3 322.2 442 324.2 L438.4 324.2 Q438.7 322.2 442 324.2 Z" fill="#FFFFFF"></path><path d="M442 329.4 L451.6 345.8 L432.4 345.8 Z" fill="#1E4A78"></path><path d="M442 329.4 L447.3 337.6 Q446.8 335.6 442 337.6 L436.7 337.6 Q437.2 335.6 442 337.6 Z" fill="#FFFFFF"></path><path d="M442 343.8 L454 360.2 L430 360.2 Z" fill="#1E4A78"></path><path d="M442 343.8 L448.6 352 Q448 350 442 352 L435.4 352 Q436 350 442 352 Z" fill="#FFFFFF"></path><rect x="470.9" y="366.3" width="4.1" height="5.9" fill="#13233A"></rect><path d="M473 312 L481.1 332.1 L464.9 332.1 Z" fill="#1E4A78"></path><path d="M473 312 L477.5 322 Q477.1 319.6 473 322 L468.5 322 Q468.9 319.6 473 322 Z" fill="#FFFFFF"></path><path d="M473 328.5 L484.8 348.6 L461.2 348.6 Z" fill="#1E4A78"></path><path d="M473 328.5 L479.5 338.5 Q478.9 336.1 473 338.5 L466.5 338.5 Q467.1 336.1 473 338.5 Z" fill="#FFFFFF"></path><path d="M473 346.2 L487.8 366.3 L458.2 366.3 Z" fill="#1E4A78"></path><path d="M473 346.2 L481.1 356.2 Q480.4 353.8 473 356.2 L464.9 356.2 Q465.6 353.8 473 356.2 Z" fill="#FFFFFF"></path><rect x="502.3" y="356.2" width="3.4" height="4.8" fill="#13233A"></rect><path d="M504 312 L510.6 328.3 L497.4 328.3 Z" fill="#1E4A78"></path><path d="M504 312 L507.6 320.2 Q507.3 318.2 504 320.2 L500.4 320.2 Q500.7 318.2 504 320.2 Z" fill="#FFFFFF"></path><path d="M504 325.4 L513.6 341.8 L494.4 341.8 Z" fill="#1E4A78"></path><path d="M504 325.4 L509.3 333.6 Q508.8 331.6 504 333.6 L498.7 333.6 Q499.2 331.6 504 333.6 Z" fill="#FFFFFF"></path><path d="M504 339.8 L516 356.2 L492 356.2 Z" fill="#1E4A78"></path><path d="M504 339.8 L510.6 348 Q510 346 504 348 L497.4 348 Q498 346 504 348 Z" fill="#FFFFFF"></path><rect x="532.9" y="362.3" width="4.1" height="5.9" fill="#13233A"></rect><path d="M535 308 L543.1 328.1 L526.9 328.1 Z" fill="#1E4A78"></path><path d="M535 308 L539.5 318 Q539.1 315.6 535 318 L530.5 318 Q530.9 315.6 535 318 Z" fill="#FFFFFF"></path><path d="M535 324.5 L546.8 344.6 L523.2 344.6 Z" fill="#1E4A78"></path><path d="M535 324.5 L541.5 334.5 Q540.9 332.1 535 334.5 L528.5 334.5 Q529.1 332.1 535 334.5 Z" fill="#FFFFFF"></path><path d="M535 342.2 L549.8 362.3 L520.2 362.3 Z" fill="#1E4A78"></path><path d="M535 342.2 L543.1 352.2 Q542.4 349.8 535 352.2 L526.9 352.2 Q527.6 349.8 535 352.2 Z" fill="#FFFFFF"></path><rect x="564.3" y="352.2" width="3.4" height="4.8" fill="#13233A"></rect><path d="M566 308 L572.6 324.3 L559.4 324.3 Z" fill="#1E4A78"></path><path d="M566 308 L569.6 316.2 Q569.3 314.2 566 316.2 L562.4 316.2 Q562.7 314.2 566 316.2 Z" fill="#FFFFFF"></path><path d="M566 321.4 L575.6 337.8 L556.4 337.8 Z" fill="#1E4A78"></path><path d="M566 321.4 L571.3 329.6 Q570.8 327.6 566 329.6 L560.7 329.6 Q561.2 327.6 566 329.6 Z" fill="#FFFFFF"></path><path d="M566 335.8 L578 352.2 L554 352.2 Z" fill="#1E4A78"></path><path d="M566 335.8 L572.6 344 Q572 342 566 344 L559.4 344 Q560 342 566 344 Z" fill="#FFFFFF"></path><rect x="594.9" y="358.3" width="4.1" height="5.9" fill="#13233A"></rect><path d="M597 304 L605.1 324.1 L588.9 324.1 Z" fill="#1E4A78"></path><path d="M597 304 L601.5 314 Q601.1 311.6 597 314 L592.5 314 Q592.9 311.6 597 314 Z" fill="#FFFFFF"></path><path d="M597 320.5 L608.8 340.6 L585.2 340.6 Z" fill="#1E4A78"></path><path d="M597 320.5 L603.5 330.5 Q602.9 328.1 597 330.5 L590.5 330.5 Q591.1 328.1 597 330.5 Z" fill="#FFFFFF"></path><path d="M597 338.2 L611.8 358.3 L582.2 358.3 Z" fill="#1E4A78"></path><path d="M597 338.2 L605.1 348.2 Q604.4 345.8 597 348.2 L588.9 348.2 Q589.6 345.8 597 348.2 Z" fill="#FFFFFF"></path><rect x="626.3" y="366.2" width="3.4" height="4.8" fill="#13233A"></rect><path d="M628 322 L634.6 338.3 L621.4 338.3 Z" fill="#1E4A78"></path><path d="M628 322 L631.6 330.2 Q631.3 328.2 628 330.2 L624.4 330.2 Q624.7 328.2 628 330.2 Z" fill="#FFFFFF"></path><path d="M628 335.4 L637.6 351.8 L618.4 351.8 Z" fill="#1E4A78"></path><path d="M628 335.4 L633.3 343.6 Q632.8 341.6 628 343.6 L622.7 343.6 Q623.2 341.6 628 343.6 Z" fill="#FFFFFF"></path><path d="M628 349.8 L640 366.2 L616 366.2 Z" fill="#1E4A78"></path><path d="M628 349.8 L634.6 358 Q634 356 628 358 L621.4 358 Q622 356 628 358 Z" fill="#FFFFFF"></path><rect x="656.9" y="354.3" width="4.1" height="5.9" fill="#13233A"></rect><path d="M659 300 L667.1 320.1 L650.9 320.1 Z" fill="#1E4A78"></path><path d="M659 300 L663.5 310 Q663.1 307.6 659 310 L654.5 310 Q654.9 307.6 659 310 Z" fill="#FFFFFF"></path><path d="M659 316.5 L670.8 336.6 L647.2 336.6 Z" fill="#1E4A78"></path><path d="M659 316.5 L665.5 326.5 Q664.9 324.1 659 326.5 L652.5 326.5 Q653.1 324.1 659 326.5 Z" fill="#FFFFFF"></path><path d="M659 334.2 L673.8 354.3 L644.2 354.3 Z" fill="#1E4A78"></path><path d="M659 334.2 L667.1 344.2 Q666.4 341.8 659 344.2 L650.9 344.2 Q651.6 341.8 659 344.2 Z" fill="#FFFFFF"></path><rect x="688.3" y="362.2" width="3.4" height="4.8" fill="#13233A"></rect><path d="M690 318 L696.6 334.3 L683.4 334.3 Z" fill="#1E4A78"></path><path d="M690 318 L693.6 326.2 Q693.3 324.2 690 326.2 L686.4 326.2 Q686.7 324.2 690 326.2 Z" fill="#FFFFFF"></path><path d="M690 331.4 L699.6 347.8 L680.4 347.8 Z" fill="#1E4A78"></path><path d="M690 331.4 L695.3 339.6 Q694.8 337.6 690 339.6 L684.7 339.6 Q685.2 337.6 690 339.6 Z" fill="#FFFFFF"></path><path d="M690 345.8 L702 362.2 L678 362.2 Z" fill="#1E4A78"></path><path d="M690 345.8 L696.6 354 Q696 352 690 354 L683.4 354 Q684 352 690 354 Z" fill="#FFFFFF"></path><rect x="718.9" y="368.3" width="4.1" height="5.9" fill="#13233A"></rect><path d="M721 314 L729.1 334.1 L712.9 334.1 Z" fill="#1E4A78"></path><path d="M721 314 L725.5 324 Q725.1 321.6 721 324 L716.5 324 Q716.9 321.6 721 324 Z" fill="#FFFFFF"></path><path d="M721 330.5 L732.8 350.6 L709.2 350.6 Z" fill="#1E4A78"></path><path d="M721 330.5 L727.5 340.5 Q726.9 338.1 721 340.5 L714.5 340.5 Q715.1 338.1 721 340.5 Z" fill="#FFFFFF"></path><path d="M721 348.2 L735.8 368.3 L706.2 368.3 Z" fill="#1E4A78"></path><path d="M721 348.2 L729.1 358.2 Q728.4 355.8 721 358.2 L712.9 358.2 Q713.6 355.8 721 358.2 Z" fill="#FFFFFF"></path><rect x="750.3" y="358.2" width="3.4" height="4.8" fill="#13233A"></rect><path d="M752 314 L758.6 330.3 L745.4 330.3 Z" fill="#1E4A78"></path><path d="M752 314 L755.6 322.2 Q755.3 320.2 752 322.2 L748.4 322.2 Q748.7 320.2 752 322.2 Z" fill="#FFFFFF"></path><path d="M752 327.4 L761.6 343.8 L742.4 343.8 Z" fill="#1E4A78"></path><path d="M752 327.4 L757.3 335.6 Q756.8 333.6 752 335.6 L746.7 335.6 Q747.2 333.6 752 335.6 Z" fill="#FFFFFF"></path><path d="M752 341.8 L764 358.2 L740 358.2 Z" fill="#1E4A78"></path><path d="M752 341.8 L758.6 350 Q758 348 752 350 L745.4 350 Q746 348 752 350 Z" fill="#FFFFFF"></path><rect x="780.9" y="364.3" width="4.1" height="5.9" fill="#13233A"></rect><path d="M783 310 L791.1 330.1 L774.9 330.1 Z" fill="#1E4A78"></path><path d="M783 310 L787.5 320 Q787.1 317.6 783 320 L778.5 320 Q778.9 317.6 783 320 Z" fill="#FFFFFF"></path><path d="M783 326.5 L794.8 346.6 L771.2 346.6 Z" fill="#1E4A78"></path><path d="M783 326.5 L789.5 336.5 Q788.9 334.1 783 336.5 L776.5 336.5 Q777.1 334.1 783 336.5 Z" fill="#FFFFFF"></path><path d="M783 344.2 L797.8 364.3 L768.2 364.3 Z" fill="#1E4A78"></path><path d="M783 344.2 L791.1 354.2 Q790.4 351.8 783 354.2 L774.9 354.2 Q775.6 351.8 783 354.2 Z" fill="#FFFFFF"></path><rect x="812.3" y="354.2" width="3.4" height="4.8" fill="#13233A"></rect><path d="M814 310 L820.6 326.3 L807.4 326.3 Z" fill="#1E4A78"></path><path d="M814 310 L817.6 318.2 Q817.3 316.2 814 318.2 L810.4 318.2 Q810.7 316.2 814 318.2 Z" fill="#FFFFFF"></path><path d="M814 323.4 L823.6 339.8 L804.4 339.8 Z" fill="#1E4A78"></path><path d="M814 323.4 L819.3 331.6 Q818.8 329.6 814 331.6 L808.7 331.6 Q809.2 329.6 814 331.6 Z" fill="#FFFFFF"></path><path d="M814 337.8 L826 354.2 L802 354.2 Z" fill="#1E4A78"></path><path d="M814 337.8 L820.6 346 Q820 344 814 346 L807.4 346 Q808 344 814 346 Z" fill="#FFFFFF"></path><rect x="842.9" y="360.3" width="4.1" height="5.9" fill="#13233A"></rect><path d="M845 306 L853.1 326.1 L836.9 326.1 Z" fill="#1E4A78"></path><path d="M845 306 L849.5 316 Q849.1 313.6 845 316 L840.5 316 Q840.9 313.6 845 316 Z" fill="#FFFFFF"></path><path d="M845 322.5 L856.8 342.6 L833.2 342.6 Z" fill="#1E4A78"></path><path d="M845 322.5 L851.5 332.5 Q850.9 330.1 845 332.5 L838.5 332.5 Q839.1 330.1 845 332.5 Z" fill="#FFFFFF"></path><path d="M845 340.2 L859.8 360.3 L830.2 360.3 Z" fill="#1E4A78"></path><path d="M845 340.2 L853.1 350.2 Q852.4 347.8 845 350.2 L836.9 350.2 Q837.6 347.8 845 350.2 Z" fill="#FFFFFF"></path><rect x="874.3" y="368.2" width="3.4" height="4.8" fill="#13233A"></rect><path d="M876 324 L882.6 340.3 L869.4 340.3 Z" fill="#1E4A78"></path><path d="M876 324 L879.6 332.2 Q879.3 330.2 876 332.2 L872.4 332.2 Q872.7 330.2 876 332.2 Z" fill="#FFFFFF"></path><path d="M876 337.4 L885.6 353.8 L866.4 353.8 Z" fill="#1E4A78"></path><path d="M876 337.4 L881.3 345.6 Q880.8 343.6 876 345.6 L870.7 345.6 Q871.2 343.6 876 345.6 Z" fill="#FFFFFF"></path><path d="M876 351.8 L888 368.2 L864 368.2 Z" fill="#1E4A78"></path><path d="M876 351.8 L882.6 360 Q882 358 876 360 L869.4 360 Q870 358 876 360 Z" fill="#FFFFFF"></path><rect x="904.9" y="356.3" width="4.1" height="5.9" fill="#13233A"></rect><path d="M907 302 L915.1 322.1 L898.9 322.1 Z" fill="#1E4A78"></path><path d="M907 302 L911.5 312 Q911.1 309.6 907 312 L902.5 312 Q902.9 309.6 907 312 Z" fill="#FFFFFF"></path><path d="M907 318.5 L918.8 338.6 L895.2 338.6 Z" fill="#1E4A78"></path><path d="M907 318.5 L913.5 328.5 Q912.9 326.1 907 328.5 L900.5 328.5 Q901.1 326.1 907 328.5 Z" fill="#FFFFFF"></path><path d="M907 336.2 L921.8 356.3 L892.2 356.3 Z" fill="#1E4A78"></path><path d="M907 336.2 L915.1 346.2 Q914.4 343.8 907 346.2 L898.9 346.2 Q899.6 343.8 907 346.2 Z" fill="#FFFFFF"></path><rect x="936.3" y="364.2" width="3.4" height="4.8" fill="#13233A"></rect><path d="M938 320 L944.6 336.3 L931.4 336.3 Z" fill="#1E4A78"></path><path d="M938 320 L941.6 328.2 Q941.3 326.2 938 328.2 L934.4 328.2 Q934.7 326.2 938 328.2 Z" fill="#FFFFFF"></path><path d="M938 333.4 L947.6 349.8 L928.4 349.8 Z" fill="#1E4A78"></path><path d="M938 333.4 L943.3 341.6 Q942.8 339.6 938 341.6 L932.7 341.6 Q933.2 339.6 938 341.6 Z" fill="#FFFFFF"></path><path d="M938 347.8 L950 364.2 L926 364.2 Z" fill="#1E4A78"></path><path d="M938 347.8 L944.6 356 Q944 354 938 356 L931.4 356 Q932 354 938 356 Z" fill="#FFFFFF"></path><rect x="966.9" y="352.3" width="4.1" height="5.9" fill="#13233A"></rect><path d="M969 298 L977.1 318.1 L960.9 318.1 Z" fill="#1E4A78"></path><path d="M969 298 L973.5 308 Q973.1 305.6 969 308 L964.5 308 Q964.9 305.6 969 308 Z" fill="#FFFFFF"></path><path d="M969 314.5 L980.8 334.6 L957.2 334.6 Z" fill="#1E4A78"></path><path d="M969 314.5 L975.5 324.5 Q974.9 322.1 969 324.5 L962.5 324.5 Q963.1 322.1 969 324.5 Z" fill="#FFFFFF"></path><path d="M969 332.2 L983.8 352.3 L954.2 352.3 Z" fill="#1E4A78"></path><path d="M969 332.2 L977.1 342.2 Q976.4 339.8 969 342.2 L960.9 342.2 Q961.6 339.8 969 342.2 Z" fill="#FFFFFF"></path><rect x="998.3" y="360.2" width="3.4" height="4.8" fill="#13233A"></rect><path d="M1000 316 L1006.6 332.3 L993.4 332.3 Z" fill="#1E4A78"></path><path d="M1000 316 L1003.6 324.2 Q1003.3 322.2 1000 324.2 L996.4 324.2 Q996.7 322.2 1000 324.2 Z" fill="#FFFFFF"></path><path d="M1000 329.4 L1009.6 345.8 L990.4 345.8 Z" fill="#1E4A78"></path><path d="M1000 329.4 L1005.3 337.6 Q1004.8 335.6 1000 337.6 L994.7 337.6 Q995.2 335.6 1000 337.6 Z" fill="#FFFFFF"></path><path d="M1000 343.8 L1012 360.2 L988 360.2 Z" fill="#1E4A78"></path><path d="M1000 343.8 L1006.6 352 Q1006 350 1000 352 L993.4 352 Q994 350 1000 352 Z" fill="#FFFFFF"></path><rect x="1028.9" y="366.3" width="4.1" height="5.9" fill="#13233A"></rect><path d="M1031 312 L1039.1 332.1 L1022.9 332.1 Z" fill="#1E4A78"></path><path d="M1031 312 L1035.5 322 Q1035.1 319.6 1031 322 L1026.5 322 Q1026.9 319.6 1031 322 Z" fill="#FFFFFF"></path><path d="M1031 328.5 L1042.8 348.6 L1019.2 348.6 Z" fill="#1E4A78"></path><path d="M1031 328.5 L1037.5 338.5 Q1036.9 336.1 1031 338.5 L1024.5 338.5 Q1025.1 336.1 1031 338.5 Z" fill="#FFFFFF"></path><path d="M1031 346.2 L1045.8 366.3 L1016.2 366.3 Z" fill="#1E4A78"></path><path d="M1031 346.2 L1039.1 356.2 Q1038.4 353.8 1031 356.2 L1022.9 356.2 Q1023.6 353.8 1031 356.2 Z" fill="#FFFFFF"></path><path d="M0 430 Q200 408 400 420 T800 414 T1024 410 V500 H0 Z" fill="url(#fgnd)"></path><g transform="translate(560 118) scale(.95)"><ellipse cx="248" cy="364" rx="90" ry="10" fill="#13233A" opacity=".16"></ellipse><rect x="232" y="250" width="34" height="114" fill="#13233A"></rect><path d="M0 176 L60 90 H420 V262 H60 Z" fill="#1F5FC4"></path><path d="M0 176 L60 90 H420 V100 H66 L10 182 Z" fill="#fff" opacity=".18"></path><text x="246" y="222" text-anchor="middle" font-family="K" font-size="112" fill="#fff" letter-spacing="4">GUDAURI</text><path d="M24 98 C 32 61.6, 68 54.8, 104 80.2 C 112 80, 148 77.3, 184 87.3 C 192 83.9, 228 82.1, 264 88.8 C 272 61.6, 308 54.8, 344 80.2 C 352 80.2, 388 77.6, 424 87.4 L424 98 L385 98 L376 112 L367 98 L273 98 L264 128 L255 98 L177 98 L168 110 L159 98 L73 98 L64 122 L55 98 L24 98 Z" fill="#fff"></path></g></svg>