<svg xmlns="http://www.w3.org/2000/svg" viewBox="0 0 432 432" width="432" height="432"><defs><linearGradient id="h1sky" x1="0" y1="0" x2="0" y2="1"><stop offset="0" stop-color="#5588CB"></stop><stop offset=".5" stop-color="#A9CBEA"></stop><stop offset="1" stop-color="#FBE6CF"></stop></linearGradient><linearGradient id="h1gnd" x1="0" y1="0" x2="0" y2="1"><stop offset="0" stop-color="#FFFFFF"></stop><stop offset="1" stop-color="#D5E2F0"></stop></linearGradient><radialGradient id="h1sun" cx=".5" cy=".5" r=".5"><stop offset="0" stop-color="#FFE9A8" stop-opacity=".95"></stop><stop offset="1" stop-color="#FFE9A8" stop-opacity="0"></stop></radialGradient><linearGradient id="h1cL" x1="0" y1="0" x2="0" y2="1"><stop offset="0" stop-color="#FFFFFF"></stop><stop offset="1" stop-color="#CFE0F2"></stop></linearGradient><linearGradient id="h1cS" x1="0" y1="0" x2="0" y2="1"><stop offset="0" stop-color="#A4BCD8"></stop><stop offset="1" stop-color="#6685B0"></stop></linearGradient><linearGradient id="h1bL" x1="0" y1="0" x2="0" y2="1"><stop offset="0" stop-color="#FFFFFF"></stop><stop offset="1" stop-color="#CFE0F2"></stop></linearGradient><linearGradient id="h1bS" x1="0" y1="0" x2="0" y2="1"><stop offset="0" stop-color="#A4BCD8"></stop><stop offset="1" stop-color="#6685B0"></stop></linearGradient><linearGradient id="h1aL" x1="0" y1="0" x2="0" y2="1"><stop offset="0" stop-color="#FFFFFF"></stop><stop offset="1" stop-color="#CFE0F2"></stop></linearGradient><linearGradient id="h1aS" x1="0" y1="0" x2="0" y2="1"><stop offset="0" stop-color="#A4BCD8"></stop><stop offset="1" stop-color="#6685B0"></stop></linearGradient></defs><g transform="translate(62 46) scale(0.6)"><ellipse cx="288" cy="488" rx="70" ry="8" fill="#13233A" opacity=".16"></ellipse><rect x="272" y="432" width="32" height="56" fill="#13233A"></rect><path d="M110 398 L158 352 H420 V442 H158 Z" fill="#1F5FC4"></path><path d="M110 398 L158 352 H420 V360 H164 L120 402 Z" fill="#fff" opacity=".18"></path><path d="M176 398 L222 366 V382 H356 V414 H222 V430 Z" fill="#fff"></path><path d="M132 360 C 137.9 327.2, 164.6 321.2, 191.2 343.6 C 197.1 343.4, 223.8 341.1, 250.4 349.9 C 256.3 346.8, 283 345.2, 309.6 351.2 C 315.5 327.1, 342.2 321.2, 368.8 343.6 C 374.7 343.6, 401.4 341.3, 428 350 L428 360 L407.4 360 L398.4 372 L389.4 360 L330.4 360 L321.4 388 L312.4 360 L259.4 360 L250.4 370 L241.4 360 L176.5 360 L167.5 382 L158.5 360 L132 360 Z" fill="#fff"></path></g></svg>